<?xml version="1.0" encoding="UTF-8"?>
<svg id="Capa_1" data-name="Capa 1" xmlns="http://www.w3.org/2000/svg" viewBox="0 0 595.28 595.28">
  <path d="M26.42,225.73c0-47.13,33.84-87.22,79.62-94.51,26.44-4.21,50.64,1.66,72.29,17.53,1.59,1.16,2.62,1.18,4.22,0,15.77-11.67,33.44-17.99,53.09-18.7,22.27-.81,42.37,5.45,60.29,18.65,1.69,1.25,2.75,1.18,4.41-.03,15.72-11.59,33.32-17.89,52.88-18.61,22.36-.83,42.52,5.46,60.5,18.73,1.48,1.09,2.47,1.24,4.03,.08,15.81-11.74,33.56-18.02,53.28-18.82,48.34-1.97,90.12,32.99,97.37,79.43,5.38,34.48-5.25,63.76-31.05,87.12-16.28,14.74-35.81,22.42-57.84,23.54-22.88,1.16-43.45-5.27-61.86-18.78-1.47-1.08-2.37-1.01-3.79,.05-14.32,10.69-30.4,16.99-48.19,18.54-23.26,2.03-44.56-3.71-63.72-17.13-3.87-2.72-3.81-2.72-7.73,.04-14.95,10.5-31.52,16.36-49.81,17.3-22.87,1.18-43.48-5.15-61.89-18.66-1.63-1.2-2.62-1.11-4.18,.05-14.26,10.62-30.3,16.9-48,18.4-25.8,2.18-49.01-4.78-69.05-21.25-19.75-16.23-31.07-37.29-34.26-62.66-.45-3.6-.81-7.24-.6-10.28Zm22.44,5.74c.31,15.32,8.21,33.72,24.56,48.21,24.74,21.93,60.79,24.39,88.36,6.17,3.26-2.15,2.79-1.59,.78-4.39-14.47-20.19-20.58-42.66-17.85-67.36,1.85-16.83,8-32.1,18.17-45.66,1.39-1.85,1.14-2.68-.72-3.87-15.54-9.96-32.4-14.06-50.75-11.53-35.92,4.95-62.53,35.61-62.54,78.43Zm498.5-14.85c-.07-11.71-7.25-29.43-21.99-43.68-15.43-14.92-34.11-21.73-55.65-20.39-12.83,.8-24.53,4.9-35.29,11.83-2.7,1.74-2.72,1.78-.76,4.45,11.15,15.23,17.37,32.3,18.33,51.11,1.17,22.88-5.2,43.64-18.84,62.09-1.3,1.76-.93,2.43,.7,3.5,15.11,9.89,31.62,14,49.55,11.91,36.38-4.24,63.86-35.24,63.95-80.81Zm-309.5,81.35c15.64,0,29.69-4.22,41.53-12.09,3.28-2.18,2.87-1.54,.72-4.56-14.44-20.22-20.49-42.71-17.73-67.39,1.87-16.75,8.02-31.93,18.12-45.45,1.32-1.77,1.28-2.63-.64-3.9-12.67-8.36-26.64-12.46-41.73-12.27-13.93,.17-26.87,4.13-38.6,11.78-3.12,2.03-3.14,2.03-.93,5.09,11.19,15.42,17.32,32.67,18.11,51.66,.94,22.63-5.46,43.15-18.99,61.36-1.17,1.57-.85,2.2,.6,3.19,12.38,8.36,26.06,12.38,39.54,12.59Zm119.12,.02c14.4-.22,27.86-4,40.03-12.07,3.39-2.25,2.9-1.62,.8-4.55-14.35-20.07-20.43-42.39-17.81-66.92,1.82-17.01,8-32.41,18.27-46.11,1.37-1.83,.97-2.59-.71-3.71-12.5-8.32-26.31-12.43-41.24-12.32-14.1,.1-27.2,4-39.08,11.75-3.17,2.07-3.2,2.05-1.01,5.07,11.13,15.35,17.3,32.51,18.14,51.41,1,22.72-5.39,43.31-18.94,61.61-1.09,1.47-1.05,2.15,.51,3.21,12.38,8.35,26.05,12.4,41.05,12.64Zm-162.58-65.99c0-21.78-4.23-35.38-12.51-47.78-1.09-1.64-1.68-1.76-2.87-.05-16.53,23.77-16.73,57.19-.44,81.24,1.81,2.68,1.94,2.7,3.68,.04,8.04-12.24,12.14-25.66,12.13-33.46Zm89.76-7.42c-.03,14.87,3.9,28.12,11.68,40.23,2.22,3.45,2.28,3.44,4.46,.11,15.95-24.43,15.71-56.33-.62-80.45-1.54-2.27-1.7-2.28-3.24,.06-8.09,12.29-12.31,25.76-12.28,40.05Zm117.66,2.4c-.13,3.99,.69,9.73,2.03,15.4,2,8.46,5.52,16.25,10.36,23.46,1.45,2.17,1.64,2.13,3.16-.03,.13-.19,.26-.38,.39-.58,16.15-24.16,15.96-56.81-.46-80.84-1.52-2.22-1.56-2.23-3.07,.03-8.25,12.31-12.42,25.87-12.41,42.55Z"/>
  <path d="M156.43,364.89c5.27,0,10.54,.06,15.81-.03,1.75-.03,2.83,.57,3.8,2.03,20.99,31.55,42.02,63.08,63.03,94.61,.37,.56,1.11,1.12,.78,1.83-.41,.86-1.38,.48-2.1,.48-9.92,.02-19.84-.02-29.76,.05-1.67,.01-2.72-.54-3.58-1.98-2.57-4.33-5.27-8.58-7.87-12.9-.58-.97-1.19-1.35-2.39-1.33-19.83,.23-39.67,.34-59.5-.05-1.07-.02-1.66,.27-2.21,1.22-2.5,4.28-5.14,8.48-7.63,12.77-.91,1.57-1.96,2.3-3.87,2.28-9.45-.09-18.91-.04-28.36-.05-.76,0-1.76,.32-2.2-.35-.57-.87,.39-1.56,.83-2.22,18.25-27.41,36.51-54.83,54.83-82.19,.99-1.48,1.1-2.37-.17-3.74-2.42-2.61-4.62-5.42-6.9-8.17-.43-.51-1.23-.97-.92-1.74,.32-.81,1.22-.5,1.86-.5,5.5-.03,11-.01,16.51-.02Zm27.16,63.02c-5.67-9.26-11.19-18.31-16.78-27.33-.87-1.41-1.17-4.01-2.62-3.98-1.26,.03-1.77,2.62-2.65,4.06-5.53,9.09-11.02,18.2-16.49,27.25h38.53Z"/>
  <path d="M397.43,391.76c-6.22-6.35-11.79-13.18-17.72-19.68-1.57-1.72-3.12-3.45-4.66-5.19-.39-.44-1.07-.87-.72-1.56,.33-.66,1.1-.43,1.69-.44,9.3-.02,18.6,.18,27.88-.12,3.36-.11,5.32,.98,7.3,3.57,8.04,10.52,16.41,20.79,24.46,31.31,4.83,6.31,8.78,13.16,10.34,21.11,2.85,14.5-4.2,29.34-17.39,36.77-7.89,4.45-16.48,6.71-25.37,7.83-14.96,1.89-29.7,.99-43.94-4.32-11.48-4.28-20.01-11.81-23.93-23.66-4.83-14.61,1.05-29.78,14.54-38.19,8.72-5.43,18.33-8.12,28.5-9.15,6.46-.65,12.78-.34,19.02,1.71Zm-8.74,55.08c8.06,.03,13.98-1.11,19.44-4.27,11.42-6.6,12.56-19.76,2.37-28.1-10.62-8.69-31.17-8.3-41.35,.84-3.32,2.98-5.6,6.57-5.94,11.19-.49,6.58,2.64,11.33,7.71,14.94,5.84,4.16,12.62,5.25,17.77,5.4Z"/>
  <path d="M234.24,415.76c0-6.9,.05-13.79-.03-20.69-.02-1.99,.61-2.74,2.66-2.72,8.21,.09,16.43,.08,24.64,0,1.92-.02,2.64,.73,2.61,2.59-.15,10.15,.27,20.3-.24,30.44-.18,3.65,.1,7.28,.75,10.87,1,5.56,4.38,8.93,9.8,10.25,4.37,1.07,8.75,1.02,13.09-.25,5.97-1.76,9.17-5.78,9.58-11.97,.84-12.77,.22-25.56,.4-38.34,.05-3.56,.02-3.56,3.62-3.57,7.67,0,15.34,.06,23.02-.04,2.09-.03,2.88,.61,2.87,2.77-.07,13.25,.1,26.5-.08,39.75-.18,12.98-7.03,21.58-18.5,26.85-5.78,2.66-11.98,3.75-18.26,4.19-9.99,.7-19.98,.68-29.79-1.75-6.47-1.6-12.47-4.12-17.47-8.75-5.68-5.26-8.39-11.83-8.59-19.43-.18-6.74-.04-13.48-.04-20.22h-.03Z"/>
  <path d="M484.28,427.67c0,11.08-.05,22.15,.04,33.23,.02,2.18-.62,3-2.89,2.97-8.29-.11-16.58-.09-24.86,0-2.05,.02-2.69-.74-2.69-2.71,.04-22.39,.04-44.77,0-67.16,0-2.07,.67-2.91,2.81-2.89,8.29,.08,16.58,.08,24.86,0,2.14-.02,2.79,.78,2.77,2.88-.08,11.23-.04,22.46-.04,33.69Z"/>
</svg>